<svg xmlns="http://www.w3.org/2000/svg" width="247.309" height="247.305" viewBox="0 0 247.309 247.305">
  <g id="absa_Logo" data-name="absa Logo" transform="translate(0)">
    <g id="layer1" transform="translate(0.001 -652.367)">
      <path id="path4194" d="M235.744,723.739a123.7,123.7,0,0,0-224.18,0l14.01,6.535a108.241,108.241,0,0,1,196.158,0l14.012-6.535ZM21.959,738.993,7.431,733.7a124.2,124.2,0,0,0,0,84.632l14.528-5.289a108.668,108.668,0,0,1,0-74.055M11.565,828.3a123.7,123.7,0,0,0,224.18,0l-14.012-6.535a108.241,108.241,0,0,1-196.158,0Zm213.783-89.308a108.668,108.668,0,0,1,0,74.055l14.528,5.289a124.156,124.156,0,0,0,0-84.632l-14.528,5.289Z" transform="translate(-0.001 -0.001)" fill="#fff"/>
      <path id="path4198" d="M151.293,797.1a46.021,46.021,0,0,0-9.274,1.16v-25.89l-12.928,1.4V843.28a65.643,65.643,0,0,0,19.109,3.278c15.55,0,24.73-5.245,24.73-24.733s-9.18-24.73-21.638-24.73M149.231,835.5a29.894,29.894,0,0,1-7.213-.936V809.1a31.413,31.413,0,0,1,7.213-.953c7.026,0,10.4,3.184,10.4,13.675s-3.373,13.678-10.4,13.678" transform="translate(-49.278 -45.807)" fill="#fff"/>
      <path id="path4202" d="M232.263,831.381c-5.526-.094-8.993-.186-8.993-3.184,0-3.934,2.342-4.779,9.463-4.779a69.656,69.656,0,0,1,14.236,1.781l-1.028-10.68a53.006,53.006,0,0,0-14.147-2.156c-15.55,0-21.543,5.62-21.543,16.206,0,10.213,6.276,12.836,16.862,13.022,6.837.094,10.4-.094,10.4,4.4,0,3.934-3.092,4.776-9.741,4.776a53.33,53.33,0,0,1-16.489-2.339l1.031,10.677a45.307,45.307,0,0,0,16.487,2.717c16.581,0,21.735-5.62,21.735-15.736,0-12.741-8.338-14.522-18.267-14.708" transform="translate(-80.258 -61.075)" fill="#fff"/>
      <path id="path4206" d="M69.2,812.365a53.539,53.539,0,0,0-14.614,2.156L53.558,825.2A74.982,74.982,0,0,1,67.8,823.42c6.746,0,9.463.561,9.463,6v1.5l-8.993.47C58.337,831.944,50,833.63,50,846.088c0,10.118,5.154,15.739,20.7,15.739a66.037,66.037,0,0,0,19.484-3.278V828.571c0-10.585-5.9-16.206-20.982-16.206M77.26,850.4a38.068,38.068,0,0,1-6.276.656c-5.621,0-7.963-1.778-7.963-5.62,0-4.029,2.248-4.684,6.932-4.965L77.26,840Z" transform="translate(-19.086 -61.076)" fill="#fff"/>
      <path id="path4210" d="M304.2,812.365a53.554,53.554,0,0,0-14.614,2.156L288.559,825.2A74.983,74.983,0,0,1,302.8,823.42c6.746,0,9.463.561,9.463,6v1.5l-8.993.47c-9.93.561-18.267,1.967-18.267,14.706,0,10.118,5.154,15.739,20.7,15.739a66.036,66.036,0,0,0,19.484-3.278V828.571c0-10.585-5.9-16.206-20.982-16.206m8.057,38.032a38.069,38.069,0,0,1-6.276.656c-5.621,0-7.963-1.778-7.963-5.62,0-4.029,2.248-4.684,6.932-4.965l7.307-.467Z" transform="translate(-108.792 -61.076)" fill="#fff"/>
    </g>
  </g>
</svg>
